#!OML:ASF E:/inclinewalkrobotboard/Project1/Captureday1/Session1/subject1.ASF
:FULLY-SPECIFIED
:DEGREES
213
root 0 0 0 -2.1217705687824937 -6.17493621438695 -5.178465376824047
lowerback 10.584103038598798 2.1482730819804616 4.64736540893153
upperback 0.4700217893750933 3.4893168902063767 1.5536293968632935
thorax -5.272240685263582 1.6284456178674156 -1.482237781927624
lowerneck -17.901124272080356 -3.3194147886797936 -1.9493348228241731
upperneck 19.360309657130404 -4.229091365499908 0.5852526208954567
head 9.041432739603904 -2.0396422477064946 -0.03833118778262895
rclavicle -6.2790494050776494E-15 -1.7265881071320367E-15
rhumerus -31.601510522178167 -18.241683409354998 -79.93148617167083
rradius 23.191941981906872
rwrist 4.83787158471351
rhand -18.39075610924795 26.203945736002105
rfingers 7.125020000000016
rthumb 7.890295551283659 -3.6311430806804097
lclavicle -7.200994523192643E-15 -2.2455927059457403E-15
lhumerus -38.81697949966829 7.768631346814029 80.52635505612949
lradius 21.588969346287495
lwrist 2.253495554574647
lhand -26.102348044023735 24.017499523986217
lfingers 7.125020000000023
lthumb 0.4415621999187378 53.990861780857486
rfemur -0.9163039434143698 3.601638387693102 24.907471987054997
rtibia 44.826467060765225
rfoot -0.4514211406655586 -0.4934536431504699
rtoes -1.4350757444442837
lfemur -25.766653943103563 -2.820030914659798 -14.601820984277646
ltibia 22.905821459044308
lfoot -4.812732745275726 1.395031220759047
ltoes 0.34330376955340114
214
root 0 0 0 -3.2109488573877325 -5.863427836697292 -2.8623908586350373
lowerback 10.32843276272808 2.0403113310043066 2.501770342722902
upperback 0.09374015812023498 3.0734411914380155 1.0960920468516389
thorax -5.618697112088338 1.473532946434614 -0.6998838595970832
lowerneck -16.842493897302592 -3.214640767243933 -1.7508791780477742
upperneck 19.624239873280516 -4.116533888573084 0.7118422218227379
head 8.962956411163717 -1.9820660745617624 -0.004199161532145557
rclavicle -4.418221363999019E-15 -2.3218581283805346E-15
rhumerus -32.42453408898915 -19.974168446469434 -79.25167421338242
rradius 21.64684815743773
rwrist 5.8829916329404535
rhand -18.157977221579966 26.13047704571175
rfingers 7.125020000000021
rthumb 8.113891943657602 -3.692560243943852
lclavicle -4.8562460813976405E-15 -2.844139472995358E-15
lhumerus -39.06861323496522 8.509421465919878 79.7897932230352
lradius 21.2274680548165
lwrist 2.1393191401063643
lhand -26.15108822862282 24.0306869673455
lfingers 7.1250200000000214
lthumb 0.3927792967354691 53.99610150155936
rfemur -7.377624450077728 2.5172996099671687 24.745410550964902
rtibia 61.235195689607565
rfoot 9.625389064088354 -0.8441384941958292
rtoes 10.111973512225925
lfemur -23.38276723473659 -2.087512662895646 -16.446765569108894
ltibia 23.555187946349786
lfoot -5.4897442241370715 0.36644472911451054
ltoes 1.6546222238477881
215
root 0 0 0 -3.9756584266407833 -5.477619901950939 -0.6178272304043229
lowerback 9.240764664082247 1.6945754317087869 0.16977392526826507
upperback -0.20998969331642459 2.3072025903540894 0.7177506953792352
thorax -5.3870099199751795 1.151203947299763 0.34417498505685673
lowerneck -16.425585731184146 -2.652613522182556 -1.5421853275089261
upperneck 23.961043255221988 -3.5307711831092803 0.7045830683838862
head 10.44673370827272 -1.6282073993755537 0.0031538120920580615
rclavicle -3.622094975920253E-15 -9.064148574764556E-16
rhumerus -33.522207028062226 -21.718956013313928 -78.60242876427185
rradius 20.14444745167451
rwrist 6.787444916107382
rhand -17.962267351111105 25.949748618737424
rfingers 7.125020000000022
rthumb 8.301782967510935 -3.85595009068642
lclavicle -3.955866765645245E-15 -1.6781328809100644E-15
lhumerus -38.83810573700295 8.551697542509503 79.61961706500354
lradius 21.213918972461055
lwrist 2.2450576698037383
lhand -26.344083552297494 23.699767987029666
lfingers 7.125020000000021
lthumb 0.20478349865221457 53.66257604486945
rfemur -12.582468305779134 2.133413435358154 26.737761134369777
rtibia 70.3819873149352
rfoot 8.167232172998323 -2.875689313987398
rtoes 15.605773040030096
lfemur -15.535387851955527 -2.275953927032425 -21.384760212730303
ltibia 22.741646189019484
lfoot -7.066507823840656 -0.9643015006530162
ltoes 7.39722052018876
216
root 0 0 0 -4.441099749389195 -5.029568225627534 0.24814758414052074
lowerback 10.553923224615103 1.1474754381926828 -0.9460426747399926
upperback -0.031082875347234792 1.4535929153115272 0.6700502677568939
thorax -5.973549392986182 0.7517047085798779 1.038034657258529
lowerneck -16.774969021591172 -2.6287915297141895 -1.5667238756417214
upperneck 21.06286158217197 -3.3904017743211434 0.46125659779638095
head 9.572274947790474 -1.6164268664871013 -0.03141878469988746
rclavicle -3.4366463064118175E-15 1.0299816860232342E-15
rhumerus -34.16446242757819 -22.438490293562083 -78.49018213743254
rradius 19.437763249620133
rwrist 7.3549516754915
rhand -17.847672672632406 25.879709691230453
rfingers 7.125020000000022
rthumb 8.412060635440472 -3.90313203676741
lclavicle -3.3890148143007878E-15 2.717646353420447E-16
lhumerus -38.10227175094833 8.120947856538638 79.59212735758099
lradius 21.50685343789568
lwrist 2.3099686683082687
lhand -26.452792458112533 23.568199296658364
lfingers 7.12502000000002
lthumb 0.09726556286070043 53.53917266040801
rfemur -14.153968902041553 1.4432405340828112 26.300560857877862
rtibia 70.457740092123
rfoot 4.946817365704442 -3.3601054802716153
rtoes 14.776399025037554
lfemur -5.167612386083641 -3.198348452604996 -25.469404839594198
ltibia 21.220786312773896
lfoot -11.815894319580222 -0.44765263874197503
ltoes 5.6632972678566915
